<svg width="20" height="20" viewBox="0 0 20 20" fill="none" xmlns="http://www.w3.org/2000/svg">
<path d="M9.99998 0.832031C4.94915 0.832031 0.833313 4.94786 0.833313 9.9987C0.833313 15.0495 4.94915 19.1654 9.99998 19.1654C15.0508 19.1654 19.1666 15.0495 19.1666 9.9987C19.1666 4.94786 15.0508 0.832031 9.99998 0.832031ZM14.3816 7.89036L9.18415 13.0879C9.05581 13.2162 8.88165 13.2895 8.69831 13.2895C8.51498 13.2895 8.34081 13.2162 8.21248 13.0879L5.61831 10.4937C5.35248 10.2279 5.35248 9.78786 5.61831 9.52203C5.88415 9.2562 6.32415 9.2562 6.58998 9.52203L8.69831 11.6304L13.41 6.9187C13.6758 6.65286 14.1158 6.65286 14.3816 6.9187C14.6475 7.18453 14.6475 7.61536 14.3816 7.89036Z" fill="#E35728"/>
</svg>
