<svg width="24" height="24" viewBox="0 0 24 24" fill="none" xmlns="http://www.w3.org/2000/svg">
<path d="M12 0C5.38187 0 0 5.38188 0 12C0 18.6181 5.38187 24 12 24C18.6181 24 24 18.6181 24 12C24 5.38188 18.6181 0 12 0ZM12 1.56522C17.7722 1.56522 22.4348 6.22779 22.4348 12C22.4348 17.7722 17.7722 22.4348 12 22.4348C6.22777 22.4348 1.56522 17.7722 1.56522 12C1.56522 6.22779 6.22777 1.56522 12 1.56522ZM12 3.3913C7.25483 3.3913 3.3913 7.25482 3.3913 12C3.3913 16.7452 7.25483 20.6087 12 20.6087C16.7452 20.6087 20.6087 16.7452 20.6087 12C20.6087 7.25482 16.7452 3.3913 12 3.3913ZM12 4.95652C15.8993 4.95652 19.0435 8.10073 19.0435 12C19.0435 15.8992 15.8993 19.0435 12 19.0435C8.10073 19.0435 4.95652 15.8992 4.95652 12C4.95652 8.10073 8.10073 4.95652 12 4.95652ZM12 7.82609C9.6948 7.82609 7.82609 9.69481 7.82609 12C7.82609 14.3052 9.6948 16.1739 12 16.1739C14.3052 16.1739 16.1739 14.3052 16.1739 12C16.1739 9.69481 14.3052 7.82609 12 7.82609Z" fill="white"/>
</svg>
