<svg width="50" height="50" viewBox="0 0 50 50" fill="none" xmlns="http://www.w3.org/2000/svg">
<rect width="50" height="50" rx="15" fill="#E35728"/>
<g filter="url(#filter0_d_2301_21308)">
<path d="M31.1331 14H18.8559C16.1802 14 14 16.178 14 18.851V26.001V26.221C14 28.905 16.1802 31.072 18.8559 31.072H23.0841C23.6897 31.072 24.1852 31.567 24.1852 32.172V33.239C24.1852 33.844 23.6897 34.339 23.0841 34.339H20.4194C19.968 34.339 19.5936 34.713 19.5936 35.164C19.5936 35.615 19.957 36 20.4194 36H29.6136C30.0651 36 30.4394 35.626 30.4394 35.175C30.4394 34.724 30.0651 34.35 29.6136 34.35H26.9489C26.3433 34.35 25.8478 33.855 25.8478 33.25V32.183C25.8478 31.578 26.3433 31.083 26.9489 31.083H31.1441C33.8308 31.083 36 28.905 36 26.232V26.012V18.862C35.989 16.178 33.8088 14 31.1331 14Z" fill="white"/>
</g>
<defs>
<filter id="filter0_d_2301_21308" x="9" y="9" width="38" height="38" filterUnits="userSpaceOnUse" color-interpolation-filters="sRGB">
<feFlood flood-opacity="0" result="BackgroundImageFix"/>
<feColorMatrix in="SourceAlpha" type="matrix" values="0 0 0 0 0 0 0 0 0 0 0 0 0 0 0 0 0 0 127 0" result="hardAlpha"/>
<feOffset dx="3" dy="3"/>
<feGaussianBlur stdDeviation="4"/>
<feColorMatrix type="matrix" values="0 0 0 0 0 0 0 0 0 0 0 0 0 0 0 0 0 0 0.3 0"/>
<feBlend mode="normal" in2="BackgroundImageFix" result="effect1_dropShadow_2301_21308"/>
<feBlend mode="normal" in="SourceGraphic" in2="effect1_dropShadow_2301_21308" result="shape"/>
</filter>
</defs>
</svg>
