<svg width="50" height="50" viewBox="0 0 50 50" fill="none" xmlns="http://www.w3.org/2000/svg">
<rect width="50" height="50" rx="15" fill="#E35728"/>
<g filter="url(#filter0_d_2301_21315)">
<path d="M17.7973 22.2475V28.4539C17.7973 29.2787 17.1491 29.9381 16.3233 29.9381C15.5036 29.9381 14.7104 29.2736 14.7104 28.4539V22.2475C14.7104 21.4381 15.5036 20.7736 16.3233 20.7736C17.1328 20.7736 17.7973 21.4381 17.7973 22.2475V22.2475ZM18.3761 30.6618C18.3761 31.5407 19.0835 32.2481 19.9624 32.2481H21.0291L21.0454 35.5228C21.0454 37.5001 24.0036 37.4847 24.0036 35.5228V32.2481H25.9972V35.5228C25.9972 37.4898 28.9718 37.495 28.9718 35.5228V32.2481H30.0539C30.2615 32.2475 30.4669 32.2059 30.6585 32.1258C30.85 32.0457 31.0239 31.9287 31.1701 31.7813C31.3164 31.634 31.4322 31.4593 31.511 31.2673C31.5897 31.0752 31.6299 30.8694 31.6291 30.6618V21.048H18.3761V30.6618ZM31.6668 20.5275H18.3169C18.3169 18.2338 19.6889 16.2402 21.7254 15.2009L20.7015 13.3093C20.5515 13.047 20.9322 12.8806 21.0608 13.1053L22.1001 15.0131C23.9702 14.1822 26.1199 14.2251 27.9042 15.0131L28.9383 13.1104C29.0721 12.8798 29.4477 13.0513 29.2976 13.3145L28.2738 15.2009C30.294 16.2402 31.6659 18.2346 31.6659 20.5275H31.6668ZM22.5185 17.5529C22.5185 17.4038 22.4592 17.2607 22.3538 17.1552C22.2483 17.0497 22.1052 16.9904 21.956 16.9904C21.6508 16.9904 21.4098 17.2477 21.4098 17.5529C21.4098 17.8582 21.6568 18.1154 21.956 18.1154C22.2724 18.1154 22.5185 17.8582 22.5185 17.5529ZM28.5962 17.5529C28.5969 17.4062 28.54 17.265 28.4377 17.1598C28.3354 17.0546 28.1959 16.9938 28.0492 16.9904C27.9 16.9904 27.7569 17.0497 27.6514 17.1552C27.5459 17.2607 27.4867 17.4038 27.4867 17.5529C27.4867 17.7021 27.5459 17.8452 27.6514 17.9507C27.7569 18.0562 27.9 18.1154 28.0492 18.1154C28.3493 18.1154 28.5962 17.8582 28.5962 17.5529V17.5529ZM33.6767 20.7744C32.8672 20.7744 32.2027 21.4227 32.2027 22.2484V28.4547C32.2027 29.2796 32.8672 29.939 33.6767 29.939C34.5024 29.939 35.2896 29.2745 35.2896 28.4547V22.2484C35.2896 21.4235 34.4964 20.7744 33.6767 20.7744Z" fill="white"/>
</g>
<defs>
<filter id="filter0_d_2301_21315" x="9.71045" y="8" width="36.5791" height="40" filterUnits="userSpaceOnUse" color-interpolation-filters="sRGB">
<feFlood flood-opacity="0" result="BackgroundImageFix"/>
<feColorMatrix in="SourceAlpha" type="matrix" values="0 0 0 0 0 0 0 0 0 0 0 0 0 0 0 0 0 0 127 0" result="hardAlpha"/>
<feOffset dx="3" dy="3"/>
<feGaussianBlur stdDeviation="4"/>
<feColorMatrix type="matrix" values="0 0 0 0 0 0 0 0 0 0 0 0 0 0 0 0 0 0 0.3 0"/>
<feBlend mode="normal" in2="BackgroundImageFix" result="effect1_dropShadow_2301_21315"/>
<feBlend mode="normal" in="SourceGraphic" in2="effect1_dropShadow_2301_21315" result="shape"/>
</filter>
</defs>
</svg>
