<svg width="50" height="50" viewBox="0 0 50 50" fill="none" xmlns="http://www.w3.org/2000/svg">
<rect width="50" height="50" rx="15" fill="#E35728"/>
<g filter="url(#filter0_d_2301_21311)">
<path d="M15.7024 22.6C15.501 23.3841 15.3994 24.1905 15.4 25C15.4 25.828 15.5056 26.632 15.7024 27.4H19.12C18.9582 25.8041 18.9582 24.1959 19.12 22.6H15.7024ZM16.684 20.2H19.4992C19.8184 18.7396 20.2792 17.4316 20.8444 16.3432C19.1022 17.1825 17.6527 18.5263 16.684 20.2V20.2ZM34.2976 22.6H30.88C31.0418 24.1959 31.0418 25.8041 30.88 27.4H34.2976C34.7016 25.8255 34.7016 24.1745 34.2976 22.6V22.6ZM33.316 20.2C32.3473 18.5263 30.8978 17.1825 29.1556 16.3432C29.722 17.4316 30.1816 18.7396 30.5008 20.2H33.316ZM21.5344 22.6C21.4445 23.3968 21.3996 24.1981 21.4 25C21.4 25.822 21.4456 26.626 21.5344 27.4H28.4656C28.6463 25.8051 28.6463 24.1949 28.4656 22.6H21.5344ZM21.964 20.2H28.036C27.8176 19.298 27.5026 18.4221 27.0964 17.5876C26.3428 16.0816 25.5364 15.4 25 15.4C24.4624 15.4 23.6572 16.0816 22.9036 17.5876C22.5256 18.346 22.2076 19.228 21.964 20.2ZM16.684 29.8C17.6527 31.4737 19.1022 32.8175 20.8444 33.6568C20.278 32.5684 19.8184 31.2604 19.4992 29.8H16.684V29.8ZM33.316 29.8H30.5008C30.1816 31.2604 29.7208 32.5684 29.1556 33.6568C30.8978 32.8175 32.3473 31.4737 33.316 29.8ZM21.964 29.8C22.2076 30.772 22.5256 31.654 22.9036 32.4124C23.6572 33.9184 24.4636 34.6 25 34.6C25.5376 34.6 26.3428 33.9184 27.0964 32.4124C27.4744 31.654 27.7924 30.772 28.036 29.8H21.964V29.8ZM25 37C18.3724 37 13 31.6276 13 25C13 18.3724 18.3724 13 25 13C31.6276 13 37 18.3724 37 25C37 31.6276 31.6276 37 25 37Z" fill="white"/>
</g>
<defs>
<filter id="filter0_d_2301_21311" x="8" y="8" width="40" height="40" filterUnits="userSpaceOnUse" color-interpolation-filters="sRGB">
<feFlood flood-opacity="0" result="BackgroundImageFix"/>
<feColorMatrix in="SourceAlpha" type="matrix" values="0 0 0 0 0 0 0 0 0 0 0 0 0 0 0 0 0 0 127 0" result="hardAlpha"/>
<feOffset dx="3" dy="3"/>
<feGaussianBlur stdDeviation="4"/>
<feColorMatrix type="matrix" values="0 0 0 0 0 0 0 0 0 0 0 0 0 0 0 0 0 0 0.3 0"/>
<feBlend mode="normal" in2="BackgroundImageFix" result="effect1_dropShadow_2301_21311"/>
<feBlend mode="normal" in="SourceGraphic" in2="effect1_dropShadow_2301_21311" result="shape"/>
</filter>
</defs>
</svg>
