<svg width="20" height="20" viewBox="0 0 20 20" fill="none" xmlns="http://www.w3.org/2000/svg">
<path fill-rule="evenodd" clip-rule="evenodd" d="M7.63234 3.26676C7.63234 2.46585 8.18703 1.81493 8.86814 1.81493H11.1322C11.8133 1.81493 12.368 2.46585 12.368 3.26676V3.2894C11.6454 3.21676 10.8586 3.18091 10.0002 3.18091C9.14076 3.18091 8.35401 3.21676 7.63234 3.2894V3.26676ZM1.04395 8.85048C3.50516 10.3674 6.6937 11.2041 10.019 11.207C13.3378 11.2041 16.5178 10.3702 18.9771 8.85991C18.479 5.78174 16.9083 4.14408 13.783 3.50731V3.26676C13.783 1.6857 12.5934 0.399902 11.1322 0.399902H8.86814C7.40688 0.399902 6.21731 1.6857 6.21731 3.26676V3.50731C3.09669 4.14314 1.52695 5.77608 1.02508 8.84293C1.03169 8.8467 1.03829 8.8467 1.04395 8.85048Z" fill="white"/>
<path fill-rule="evenodd" clip-rule="evenodd" d="M10.7075 12.6578V14.6982C10.7075 15.0888 10.3906 15.4057 10 15.4057C9.60946 15.4057 9.29249 15.0888 9.29249 14.6982V12.6568C6.21621 12.554 3.27483 11.7861 0.862667 10.4569C0.848517 10.7578 0.840027 11.0673 0.840027 11.3899C0.840027 17.4519 3.23709 19.5999 10 19.5999C16.7629 19.5999 19.16 17.4519 19.16 11.3899C19.16 11.0748 19.1524 10.772 19.1392 10.4786C16.7233 11.8002 13.7819 12.5606 10.7075 12.6578Z" fill="white"/>
</svg>
