<svg width="24" height="20" viewBox="0 0 24 20" fill="none" xmlns="http://www.w3.org/2000/svg">
<path d="M6.35225 6.0961C6.09943 5.84327 5.87188 5.61573 5.61906 5.38818L0.208581 10.7987C-0.0695272 11.0515 -0.0695272 11.5066 0.208581 11.7847L0.663668 12.2398C0.96706 12.5179 1.39686 12.5179 1.64969 12.2398L7.06017 6.82929C6.83262 6.57647 6.60508 6.34892 6.35225 6.0961Z" fill="white"/>
<path d="M7.06018 5.38812C8.6277 6.95565 9.9424 8.57373 10.979 10.116C11.156 10.3941 11.5858 10.2677 11.611 9.93899C11.6869 8.4726 10.8273 6.47528 9.25977 4.65493L9.71485 4.19984C9.99296 3.92173 9.99296 3.49193 9.71485 3.21382L9.25977 2.75873C8.98166 2.48062 8.55185 2.48062 8.27374 2.75873L7.81866 3.21382C5.99831 1.6463 4.00098 0.78669 2.53459 0.862538C2.20592 0.88782 2.07951 1.29234 2.35762 1.4946C3.87457 2.48062 5.49266 3.79532 7.06018 5.38812Z" fill="white"/>
<path d="M22.1792 1.06481L19.0189 2.40479C18.6902 2.55648 18.4121 2.80931 18.2857 3.13798L17.3502 5.53983C17.2238 5.89379 16.9457 6.14661 16.5917 6.29831L15.1506 6.85453C14.7461 7.0315 14.4174 7.38546 14.3416 7.81526L13.6337 11.2284C13.5073 11.7846 13.0522 12.2144 12.496 12.265L9.46204 12.6442C9.15865 12.6695 8.90583 12.8212 8.67828 13.0235L6.35228 15.3495C6.25115 15.4506 6.12474 15.5265 5.99833 15.6023L3.95043 16.6136C2.6863 17.2457 3.14139 19.1419 4.53193 19.1419H22.6596C23.3928 19.1419 23.9995 18.5351 23.9995 17.8019V2.27837C24.0248 1.34292 23.0641 0.68557 22.1792 1.06481Z" fill="white"/>
</svg>
