<svg width="18" height="18" viewBox="0 0 18 18" fill="none" xmlns="http://www.w3.org/2000/svg">
<path d="M2.14001 7.81925L4.26953 8.70227C4.02943 9.30844 3.8379 9.93274 3.69677 10.5693L3.61599 10.9364L6.66891 13.9912L7.03607 13.9122C7.6726 13.7711 8.2969 13.5796 8.90307 13.3395L9.78609 15.469C9.79474 15.4901 9.8085 15.5087 9.82614 15.5232C9.84377 15.5377 9.86472 15.5475 9.88711 15.5519C9.9095 15.5563 9.93262 15.555 9.9544 15.5482C9.97618 15.5414 9.99594 15.5294 10.0119 15.5131L11.3465 14.1784C11.5643 13.9607 11.734 13.6996 11.8447 13.4122C11.9554 13.1248 12.0045 12.8173 11.989 12.5097L11.9413 11.6524C14.4123 9.82761 16.9126 6.62782 17.5937 1.04334C17.613 0.903329 17.5998 0.760744 17.5549 0.626704C17.5101 0.492663 17.4349 0.370788 17.3352 0.270579C17.2355 0.170369 17.1141 0.0945323 16.9803 0.048979C16.8465 0.00342574 16.7039 -0.0106131 16.5638 0.00795676C10.9812 0.694543 7.77957 3.19673 5.95479 5.66036L5.09931 5.6163C4.79237 5.5996 4.48532 5.64732 4.19793 5.7564C3.91053 5.86548 3.64914 6.0335 3.43058 6.24965L2.09595 7.58427C2.07746 7.59999 2.06346 7.62032 2.05535 7.6432C2.04725 7.66608 2.04533 7.69069 2.04981 7.71455C2.05428 7.7384 2.06498 7.76065 2.08082 7.77904C2.09666 7.79743 2.11708 7.8113 2.14001 7.81925ZM10.7021 4.56623C10.9334 4.33574 11.2278 4.17895 11.5482 4.11566C11.8685 4.05238 12.2004 4.08543 12.502 4.21065C12.8036 4.33587 13.0613 4.54764 13.2426 4.81922C13.4239 5.0908 13.5206 5.41001 13.5206 5.73655C13.5206 6.06308 13.4239 6.38229 13.2426 6.65387C13.0613 6.92545 12.8036 7.13722 12.502 7.26244C12.2004 7.38766 11.8685 7.42072 11.5482 7.35743C11.2278 7.29415 10.9334 7.13736 10.7021 6.90686C10.5481 6.75337 10.4259 6.57098 10.3425 6.37015C10.2591 6.16932 10.2162 5.954 10.2162 5.73655C10.2162 5.51909 10.2591 5.30378 10.3425 5.10295C10.4259 4.90212 10.5481 4.71973 10.7021 4.56623ZM1.74165 14.2353C1.38826 14.1113 1.00878 14.081 0.640171 14.1472C0.607411 14.1543 0.573389 14.153 0.541285 14.1433C0.50918 14.1337 0.480042 14.1161 0.456592 14.0922C0.427522 14.0632 0.408055 14.026 0.400831 13.9856C0.393607 13.9452 0.398974 13.9036 0.416205 13.8664C0.807228 13.0256 1.84445 11.3348 3.72247 12.7006C3.73228 12.7094 3.74012 12.7202 3.7455 12.7322C3.75087 12.7442 3.75365 12.7572 3.75365 12.7704C3.75365 12.7836 3.75087 12.7966 3.7455 12.8086C3.74012 12.8206 3.73228 12.8314 3.72247 12.8401C3.47104 13.0382 3.26974 13.2925 3.13483 13.5828C2.99993 13.873 2.93522 14.1909 2.94593 14.5107C2.94729 14.5483 2.96282 14.5839 2.98938 14.6105C3.01594 14.637 3.05158 14.6525 3.08912 14.6539C3.40761 14.6667 3.72467 14.6046 4.01481 14.4726C4.30495 14.3406 4.56008 14.1424 4.75969 13.8939C4.76847 13.8831 4.77953 13.8745 4.79207 13.8685C4.80461 13.8626 4.81832 13.8595 4.8322 13.8595C4.84608 13.8595 4.85979 13.8626 4.87233 13.8685C4.88487 13.8745 4.89594 13.8831 4.90472 13.8939C5.1654 14.2041 5.88319 15.2175 5.0883 16.196C4.74127 16.6131 4.24405 16.8768 3.70411 16.9303C2.93308 17.0129 1.5085 17.2644 0.926555 17.929C0.903194 17.9566 0.872758 17.9775 0.838494 17.9892C0.80423 18.0009 0.767422 18.0032 0.731996 17.9956C0.69657 17.9881 0.663853 17.9711 0.637336 17.9464C0.610819 17.9217 0.591495 17.8903 0.581426 17.8555C0.375817 17.1543 0.0563892 15.5865 1.74165 14.2353Z" fill="white"/>
</svg>
