<svg width="20" height="20" viewBox="0 0 20 20" fill="none" xmlns="http://www.w3.org/2000/svg">
<path d="M16.48 7.77585C15.032 7.77585 14.44 6.75185 15.16 5.49585C15.576 4.76785 15.328 3.83985 14.6 3.42385L13.216 2.63185C12.584 2.25585 11.768 2.47985 11.392 3.11185L11.304 3.26385C10.584 4.51985 9.4 4.51985 8.672 3.26385L8.584 3.11185C8.224 2.47985 7.408 2.25585 6.776 2.63185L5.392 3.42385C4.664 3.83985 4.416 4.77585 4.832 5.50385C5.56 6.75185 4.968 7.77585 3.52 7.77585C2.688 7.77585 2 8.45585 2 9.29585V10.7039C2 11.5359 2.68 12.2239 3.52 12.2239C4.968 12.2239 5.56 13.2479 4.832 14.5039C4.416 15.2319 4.664 16.1599 5.392 16.5759L6.776 17.3679C7.408 17.7439 8.224 17.5199 8.6 16.8879L8.688 16.7359C9.408 15.4799 10.592 15.4799 11.32 16.7359L11.408 16.8879C11.784 17.5199 12.6 17.7439 13.232 17.3679L14.616 16.5759C15.344 16.1599 15.592 15.2239 15.176 14.5039C14.448 13.2479 15.04 12.2239 16.488 12.2239C17.32 12.2239 18.008 11.5439 18.008 10.7039V9.29585C18 8.46385 17.32 7.77585 16.48 7.77585ZM10 12.5999C8.568 12.5999 7.4 11.4319 7.4 9.99985C7.4 8.56785 8.568 7.39985 10 7.39985C11.432 7.39985 12.6 8.56785 12.6 9.99985C12.6 11.4319 11.432 12.5999 10 12.5999Z" fill="white"/>
</svg>
