<svg width="153" height="46" viewBox="0 0 153 46" fill="none" xmlns="http://www.w3.org/2000/svg">
<path d="M54.83 34V13H69.65V16.93H59.24V21.55H69.44V25.36H59.24V30.07H69.65V34H54.83Z" fill="white"/>
<path d="M79.9064 33.9998V19.1498H84.1064V20.9198C85.3064 19.5598 86.8164 18.8798 88.6364 18.8798C90.6764 18.8798 92.3164 19.7398 93.5564 21.4598C94.9764 19.7398 96.7864 18.8798 98.9864 18.8798C100.946 18.8798 102.496 19.5298 103.636 20.8298C104.796 22.1298 105.376 23.9498 105.376 26.2898V33.9998H101.176V26.6498C101.176 25.2898 100.886 24.2498 100.306 23.5298C99.7464 22.8098 98.9864 22.4498 98.0264 22.4498C97.0064 22.4498 96.2064 22.8298 95.6264 23.5898C95.0464 24.3298 94.7564 25.3498 94.7564 26.6498V33.9998H90.5564V26.6498C90.5564 25.3098 90.2664 24.2798 89.6864 23.5598C89.1064 22.8198 88.3464 22.4498 87.4064 22.4498C86.4064 22.4498 85.6064 22.8398 85.0064 23.6198C84.4064 24.3798 84.1064 25.4298 84.1064 26.7698V33.9998H79.9064Z" fill="white"/>
<path d="M115.259 34.4198C113.059 34.4198 111.169 33.6598 109.589 32.1398C108.029 30.5998 107.249 28.7398 107.249 26.5598C107.249 24.3798 108.029 22.5198 109.589 20.9798C111.169 19.4198 113.059 18.6398 115.259 18.6398C116.539 18.6398 117.749 18.9298 118.889 19.5098C120.029 20.0898 120.969 20.8798 121.709 21.8798L118.289 24.3698C117.569 23.2698 116.559 22.6998 115.259 22.6598C114.119 22.6398 113.179 23.0098 112.439 23.7698C111.719 24.5098 111.359 25.4498 111.359 26.5898C111.359 27.7098 111.719 28.6398 112.439 29.3798C113.179 30.0998 114.119 30.4698 115.259 30.4898C115.899 30.5098 116.489 30.3598 117.029 30.0398C117.569 29.7198 117.999 29.2898 118.319 28.7498L121.679 31.2098C120.939 32.2098 120.009 32.9998 118.889 33.5798C117.769 34.1398 116.559 34.4198 115.259 34.4198Z" fill="white"/>
<path d="M125.688 33.9998V22.8098H122.538V19.1498H125.688V16.6898C125.688 15.0898 126.228 13.7998 127.308 12.8198C128.388 11.8198 129.778 11.3198 131.478 11.3198C132.338 11.3198 133.278 11.4598 134.298 11.7398L133.848 15.5498C133.328 15.4098 132.848 15.3398 132.408 15.3398C131.668 15.3398 131.058 15.5398 130.578 15.9398C130.118 16.3398 129.888 16.9698 129.888 17.8298V19.1498H134.028V22.8098H129.888V33.9998H125.688Z" fill="white"/>
<path d="M135.074 33.9998L140.564 26.4398L135.074 19.1498H140.084L143.174 23.6798L146.234 19.1498H151.244L145.784 26.4398L151.244 33.9998H146.234L143.174 29.1698L140.054 33.9998H135.074Z" fill="white"/>
<circle cx="74.713" cy="24.5959" r="3.04956" fill="#E35728"/>
<path d="M30.8062 41.5697C33.0624 40.3782 33.9256 37.5833 32.7342 35.327C31.5427 33.0707 28.7477 32.2075 26.4914 33.399L30.8062 41.5697ZM19.6018 39.3201L19.2074 43.9232L19.2074 43.9232L19.6018 39.3201ZM10.9988 35.9722L8.17797 39.631H8.17797L10.9988 35.9722ZM5.57246 28.504L1.2211 30.0564L1.2211 30.0564L5.57246 28.504ZM26.4914 33.399C24.4975 34.4519 22.2428 34.9094 19.9961 34.7169L19.2074 43.9232C23.2193 44.2669 27.2455 43.45 30.8062 41.5697L26.4914 33.399ZM19.9961 34.7169C17.7494 34.5245 15.6055 33.6901 13.8197 32.3133L8.17797 39.631C11.3669 42.0896 15.1954 43.5795 19.2074 43.9232L19.9961 34.7169ZM13.8197 32.3133C12.0339 30.9365 10.6815 29.0753 9.92382 26.9515L1.2211 30.0564C2.57417 33.8489 4.98904 37.1725 8.17797 39.631L13.8197 32.3133ZM9.92382 26.9515C9.1661 24.8278 9.03495 22.5309 9.54599 20.3346L0.546417 18.2405C-0.366155 22.1624 -0.131957 26.264 1.2211 30.0564L9.92382 26.9515Z" fill="#234146"/>
<path d="M2.52 23C1.12824 23 -0.0156293 21.8677 0.150956 20.4859C0.710754 15.8426 2.80974 11.4918 6.15076 8.15076C10.089 4.21249 15.4305 2 21 2C26.5695 2 31.911 4.21249 35.8492 8.15075C39.1903 11.4918 41.2892 15.8426 41.849 20.4859C42.0156 21.8677 40.8718 23 39.48 23L21 23L2.52 23Z" fill="#E35728"/>
</svg>
