<svg width="42" height="42" viewBox="0 0 42 42" fill="none" xmlns="http://www.w3.org/2000/svg">
<path d="M30.8062 39.5698C33.0624 38.3784 33.9256 35.5834 32.7342 33.3271C31.5427 31.0708 28.7477 30.2076 26.4914 31.3991L30.8062 39.5698ZM19.6018 37.3202L19.2074 41.9233L19.2074 41.9234L19.6018 37.3202ZM10.9988 33.9723L8.17797 37.6312H8.17797L10.9988 33.9723ZM5.57246 26.5041L1.2211 28.0566L1.2211 28.0566L5.57246 26.5041ZM26.4914 31.3991C24.4975 32.4521 22.2428 32.9096 19.9961 32.7171L19.2074 41.9234C23.2193 42.2671 27.2455 41.4501 30.8062 39.5698L26.4914 31.3991ZM19.9961 32.7171C17.7494 32.5246 15.6055 31.6902 13.8197 30.3135L8.17797 37.6312C11.3669 40.0897 15.1954 41.5796 19.2074 41.9233L19.9961 32.7171ZM13.8197 30.3135C12.0339 28.9367 10.6815 27.0755 9.92382 24.9517L1.2211 28.0566C2.57417 31.8491 4.98904 35.1726 8.17797 37.6312L13.8197 30.3135ZM9.92382 24.9517C9.1661 22.8279 9.03495 20.531 9.54599 18.3348L0.546417 16.2407C-0.366155 20.1625 -0.131957 24.2641 1.2211 28.0566L9.92382 24.9517Z" fill="#234146"/>
<path d="M2.52 21C1.12824 21 -0.0156293 19.8677 0.150956 18.4859C0.710754 13.8426 2.80974 9.49177 6.15076 6.15076C10.089 2.21249 15.4305 5.97526e-07 21 0C26.5695 -5.97525e-07 31.911 2.21249 35.8492 6.15075C39.1903 9.49177 41.2892 13.8426 41.849 18.4859C42.0156 19.8677 40.8718 21 39.48 21L21 21L2.52 21Z" fill="#E35728"/>
</svg>
