<svg width="24" height="24" viewBox="0 0 24 24" fill="none" xmlns="http://www.w3.org/2000/svg">
<path fill-rule="evenodd" clip-rule="evenodd" d="M8.93025 23.1628V7.81395H6.97677C6.65304 7.81395 6.35835 7.62754 6.21993 7.33619C6.08151 7.04372 6.12393 6.69767 6.32932 6.44763L11.3526 0.308093C11.5111 0.112744 11.7489 0 12 0C12.2512 0 12.489 0.112744 12.6475 0.308093L17.6707 6.44763C17.8761 6.69767 17.9185 7.04372 17.7801 7.33619C17.6417 7.62754 17.347 7.81395 17.0233 7.81395H15.0698V23.1628C15.0698 23.626 14.6947 24 14.2326 24H9.76746C9.30532 24 8.93025 23.626 8.93025 23.1628Z" fill="white"/>
<path fill-rule="evenodd" clip-rule="evenodd" d="M21.4884 12.2791L19.8139 10.0465L18.1395 12.2791C18.6017 12.2791 18.9767 12.6542 18.9767 13.1163V23.1628C18.9767 23.6249 18.6017 24 18.1395 24C17.6774 24 17.3023 23.6249 17.3023 23.1628V13.9535H16.4651C16.1481 13.9535 15.8578 13.7749 15.7161 13.4914C15.5743 13.2078 15.6056 12.8685 15.7953 12.614L19.1442 8.14885C19.3027 7.93899 19.5505 7.81396 19.8139 7.81396C20.0774 7.81396 20.3252 7.93899 20.4837 8.14885L23.8325 12.614C24.0223 12.8685 24.0536 13.2078 23.9118 13.4914C23.77 13.7749 23.4798 13.9535 23.1628 13.9535H22.3256V23.1628C22.3256 23.6249 21.9505 24 21.4884 24C21.0262 24 20.6511 23.6249 20.6511 23.1628V13.1163C20.6511 12.6542 21.0262 12.2791 21.4884 12.2791Z" fill="white"/>
<path fill-rule="evenodd" clip-rule="evenodd" d="M5.86045 12.2791L4.18603 10.0465L2.51162 12.2791C2.97375 12.2791 3.34882 12.6542 3.34882 13.1163V23.1628C3.34882 23.6249 2.97375 24 2.51162 24C2.04948 24 1.67441 23.6249 1.67441 23.1628V13.9535H0.837197C0.520173 13.9535 0.229941 13.7749 0.0881733 13.4914C-0.0535941 13.2078 -0.0223383 12.8685 0.167429 12.614L3.51627 8.14885C3.67478 7.93899 3.92259 7.81396 4.18603 7.81396C4.44948 7.81396 4.69729 7.93899 4.8558 8.14885L8.20464 12.614C8.39441 12.8685 8.42566 13.2078 8.28389 13.4914C8.14213 13.7749 7.85189 13.9535 7.53487 13.9535H6.69766V23.1628C6.69766 23.6249 6.32259 24 5.86045 24C5.39831 24 5.02324 23.6249 5.02324 23.1628V13.1163C5.02324 12.6542 5.39831 12.2791 5.86045 12.2791Z" fill="white"/>
</svg>
