<svg width="20" height="24" viewBox="0 0 20 24" fill="none" xmlns="http://www.w3.org/2000/svg">
<path fill-rule="evenodd" clip-rule="evenodd" d="M3.16003 0C1.57684 0 0.280029 1.29681 0.280029 2.88V21.12C0.280029 22.7032 1.57683 24 3.16003 24H16.84C18.4232 24 19.72 22.7032 19.72 21.12V2.88C19.72 1.29681 18.4232 0 16.84 0H3.16003ZM3.7244 2.28H16.27C16.9093 2.28 17.44 2.81072 17.44 3.45V6.87C17.44 7.50927 16.9093 8.04 16.27 8.04H3.7244C3.08509 8.04 2.5544 7.51072 2.5544 6.87V3.45C2.5544 2.80928 3.08509 2.28 3.7244 2.28ZM4.30003 9.11531C5.25454 9.11531 6.04003 9.90318 6.04003 10.8577C6.04003 11.8121 5.25454 12.6 4.30003 12.6C3.34552 12.6 2.56003 11.8121 2.56003 10.8577C2.56003 9.90318 3.34552 9.11531 4.30003 9.11531ZM10.0005 9.11625C10.9544 9.11625 11.7405 9.90238 11.7405 10.8562C11.7405 11.8101 10.9544 12.5962 10.0005 12.5962C9.04663 12.5962 8.2605 11.8101 8.2605 10.8562C8.2605 9.90238 9.04663 9.11625 10.0005 9.11625ZM15.7 9.11625C16.6539 9.11625 17.44 9.90238 17.44 10.8562C17.44 11.8101 16.6539 12.5962 15.7 12.5962C14.7462 12.5962 13.96 11.8101 13.96 10.8562C13.96 9.90238 14.7462 9.11625 15.7 9.11625ZM4.30003 13.68C5.2539 13.68 6.04003 14.4661 6.04003 15.42C6.04003 16.3739 5.2539 17.16 4.30003 17.16C3.34616 17.16 2.56003 16.3739 2.56003 15.42C2.56003 14.4661 3.34616 13.68 4.30003 13.68ZM10 13.68C10.9539 13.68 11.74 14.4661 11.74 15.42C11.74 16.3739 10.9539 17.16 10 17.16C9.04616 17.16 8.26003 16.3739 8.26003 15.42C8.26003 14.4661 9.04616 13.68 10 13.68ZM15.7024 13.68C16.6576 13.68 17.4447 14.4667 17.4447 15.4219V19.9777C17.4447 20.9328 16.6576 21.72 15.7024 21.72C14.7472 21.72 13.96 20.9328 13.96 19.9777V15.4219C13.96 14.4667 14.7472 13.68 15.7024 13.68ZM4.30003 18.24C5.25389 18.24 6.04003 19.0261 6.04003 19.98C6.04003 20.9339 5.2539 21.72 4.30003 21.72C3.34616 21.72 2.56003 20.9339 2.56003 19.98C2.56003 19.0261 3.34616 18.24 4.30003 18.24ZM10 18.24C10.9539 18.24 11.74 19.0261 11.74 19.98C11.74 20.9339 10.9539 21.72 10 21.72C9.04616 21.72 8.26003 20.9339 8.26003 19.98C8.26003 19.0261 9.04616 18.24 10 18.24Z" fill="white"/>
</svg>
