<svg width="50" height="50" viewBox="0 0 50 50" fill="none" xmlns="http://www.w3.org/2000/svg">
<rect width="50" height="50" rx="15" fill="#E35728"/>
<g filter="url(#filter0_d_2301_21313)">
<path d="M31.7757 25.6832C31.7641 23.7159 32.6555 22.2333 34.4554 21.1401C33.4487 19.6978 31.9257 18.9046 29.9181 18.7517C28.0172 18.6017 25.9374 19.8593 25.1759 19.8593C24.3712 19.8593 22.5308 18.8036 21.0828 18.8036C18.0945 18.8498 14.9186 21.1862 14.9186 25.9399C14.9186 27.3446 15.1754 28.7955 15.6888 30.2897C16.3753 32.2569 18.8502 37.0769 21.4318 36.9991C22.7818 36.9673 23.7366 36.0414 25.4932 36.0414C27.198 36.0414 28.0806 36.9991 29.5863 36.9991C32.191 36.9616 34.4294 32.58 35.0813 30.607C31.5882 28.96 31.7757 25.7841 31.7757 25.6832V25.6832ZM28.7441 16.8854C30.2065 15.149 30.0738 13.5682 30.0306 13C28.7383 13.075 27.2441 13.8798 26.3932 14.8692C25.4557 15.9307 24.9048 17.2431 25.0231 18.7229C26.4192 18.8296 27.6941 18.1113 28.7441 16.8854V16.8854Z" fill="white"/>
</g>
<defs>
<filter id="filter0_d_2301_21313" x="9.91864" y="8" width="36.1627" height="40" filterUnits="userSpaceOnUse" color-interpolation-filters="sRGB">
<feFlood flood-opacity="0" result="BackgroundImageFix"/>
<feColorMatrix in="SourceAlpha" type="matrix" values="0 0 0 0 0 0 0 0 0 0 0 0 0 0 0 0 0 0 127 0" result="hardAlpha"/>
<feOffset dx="3" dy="3"/>
<feGaussianBlur stdDeviation="4"/>
<feColorMatrix type="matrix" values="0 0 0 0 0 0 0 0 0 0 0 0 0 0 0 0 0 0 0.3 0"/>
<feBlend mode="normal" in2="BackgroundImageFix" result="effect1_dropShadow_2301_21313"/>
<feBlend mode="normal" in="SourceGraphic" in2="effect1_dropShadow_2301_21313" result="shape"/>
</filter>
</defs>
</svg>
