<svg width="24" height="14" viewBox="0 0 24 14" fill="none" xmlns="http://www.w3.org/2000/svg">
<path d="M6.33917 6.26559C6.1914 6.05215 6.16091 5.79297 6.25239 5.55021L8.13117 0.583498C8.24493 0.283268 8.53696 0.081543 8.85713 0.081543H15.1442C15.4656 0.081543 15.7564 0.283259 15.8702 0.583498L17.749 5.55021C17.8405 5.7918 17.8088 6.05333 17.6622 6.26559C17.5156 6.47904 17.2822 6.60101 17.0219 6.60101H6.97467C6.719 6.60101 6.48578 6.47904 6.33917 6.26559Z" fill="white"/>
<path d="M11.464 13.583C11.3162 13.7964 11.084 13.9184 10.8249 13.9184H0.777651C0.519639 13.9184 0.286264 13.7964 0.138491 13.583C-0.0092793 13.3695 -0.0397709 13.1092 0.0517063 12.8676L1.93049 7.90088C2.04425 7.60065 2.33628 7.39893 2.65644 7.39893H8.94356C9.2649 7.39893 9.55576 7.60064 9.66835 7.90088L11.5483 12.8676C11.6421 13.1092 11.6106 13.3707 11.464 13.583Z" fill="white"/>
<path d="M23.8622 13.582C23.7156 13.7955 23.4822 13.9174 23.223 13.9174H13.177C12.919 13.9174 12.6868 13.7955 12.5378 13.582C12.3901 13.3686 12.3584 13.1082 12.4499 12.8666L14.3298 7.89873C14.4436 7.59968 14.7356 7.39795 15.0546 7.39795H21.3417C21.6631 7.39795 21.9539 7.59967 22.0677 7.8999L23.9465 12.8666C24.0403 13.1094 24.0099 13.3698 23.8622 13.582Z" fill="white"/>
</svg>
