<svg width="20" height="20" viewBox="0 0 20 20" fill="none" xmlns="http://www.w3.org/2000/svg">
<path d="M17.192 8.168C16.92 8.056 16.56 8 16.112 8H11.888C10.496 8 10 8.496 10 9.904V16.096C10 16.56 10.056 16.92 10.176 17.2C10.424 17.776 10.952 18 11.888 18H16.112C17.504 18 18 17.496 18 16.096V9.904C18 8.952 17.776 8.416 17.192 8.168ZM14.8 16.2H13.2C13.184 16.2 13.16 16.2 13.144 16.192C13.024 16.184 12.92 16.144 12.832 16.064C12.688 15.96 12.6 15.792 12.6 15.6C12.6 15.272 12.872 15 13.2 15H14.8C15.128 15 15.4 15.272 15.4 15.6C15.4 15.928 15.128 16.2 14.8 16.2Z" fill="white"/>
<path d="M17.1921 5.352V6C17.1921 6.44 16.8321 6.8 16.3921 6.8H11.8881C9.84006 6.8 8.80006 7.848 8.80006 9.904V17.2C8.80006 17.64 8.44006 18 8.00006 18H6.44006C6.12006 18 5.86406 17.744 5.86406 17.432C5.86406 17.112 6.12006 16.864 6.44006 16.864H8.00006V13.8H5.20006C3.42406 13.712 2.00806 12.248 2.00806 10.448V5.352C2.00806 3.504 3.51206 2 5.36806 2H13.8401C15.6881 2 17.1921 3.504 17.1921 5.352Z" fill="white"/>
</svg>
