<svg width="22" height="24" viewBox="0 0 22 24" fill="none" xmlns="http://www.w3.org/2000/svg">
<path d="M16.2308 5.84615V9.53846C16.2308 9.70585 16.0905 9.84615 15.9231 9.84615H6.07693C5.90954 9.84615 5.76924 9.70585 5.76924 9.53846V5.84615C5.76924 5.67877 5.90954 5.53846 6.07693 5.53846H15.9231C16.0905 5.53846 16.2308 5.67877 16.2308 5.84615ZM21.7692 2.76923V21.2308C21.7692 22.7582 20.5262 24 19 24H3C1.47385 24 0.230774 22.7582 0.230774 21.2308V2.76923C0.230774 1.24185 1.47385 0 3 0H19C20.5262 0 21.7692 1.24185 21.7692 2.76923ZM11.9231 18.7692C11.9231 18.2597 11.5095 17.8462 11 17.8462H4.84616C4.33662 17.8462 3.92308 18.2597 3.92308 18.7692C3.92308 19.2788 4.33662 19.6923 4.84616 19.6923H11C11.5095 19.6923 11.9231 19.2788 11.9231 18.7692ZM18.0769 15.0769C18.0769 14.5674 17.6634 14.1538 17.1539 14.1538H4.84616C4.33662 14.1538 3.92308 14.5674 3.92308 15.0769C3.92308 15.5865 4.33662 16 4.84616 16H17.1539C17.6634 16 18.0769 15.5865 18.0769 15.0769ZM18.0769 5.84615C18.0769 4.65846 17.1108 3.69231 15.9231 3.69231H6.07693C4.88924 3.69231 3.92308 4.65846 3.92308 5.84615V9.53846C3.92308 10.7262 4.88924 11.6923 6.07693 11.6923H15.9231C17.1108 11.6923 18.0769 10.7262 18.0769 9.53846V5.84615Z" fill="white"/>
</svg>
