<svg width="18" height="24" viewBox="0 0 18 24" fill="none" xmlns="http://www.w3.org/2000/svg">
<path d="M17.728 11.7277C17.728 11.4007 17.4823 11.1001 17.1553 11.0463V5.59116C17.4823 5.53631 17.728 5.2642 17.728 4.9098C17.728 4.5554 17.4823 4.28222 17.1553 4.22843V1.17291C17.1553 0.0548677 10.3638 0 8.99995 0C7.63609 0 0.844587 0.0548462 0.844587 1.17291V4.22735C0.517622 4.2822 0.271851 4.55432 0.271851 4.90872C0.271851 5.26312 0.517611 5.53629 0.844587 5.59008V11.0728C0.517622 11.1277 0.271851 11.3998 0.271851 11.7542C0.271851 12.1086 0.517611 12.3817 0.844587 12.4355V17.9183C0.517622 17.9731 0.271851 18.2452 0.271851 18.5996C0.271851 18.954 0.517611 19.2272 0.844587 19.281V23.2089C0.844587 23.3724 0.844587 23.6456 3.48993 23.8365C4.93601 23.9452 6.89891 24 8.99884 24C11.0989 24 13.0629 23.9452 14.5078 23.8365C17.1531 23.6456 17.1531 23.3724 17.1531 23.2089L17.1552 19.2283C17.4822 19.1735 17.7279 18.9014 17.7279 18.547C17.7279 18.1926 17.4822 17.9194 17.1552 17.8656V12.4104C17.4832 12.3556 17.7279 12.056 17.7279 11.728L17.728 11.7277ZM9.00106 17.8644C5.72816 17.8644 3.08279 15.2191 3.08279 11.9461C3.08279 8.67326 5.72814 6.02789 9.00106 6.02789C12.274 6.02789 14.9193 8.67323 14.9193 11.9461C14.9193 15.219 12.274 17.8644 9.00106 17.8644Z" fill="white"/>
<path d="M8.9732 8.01935C7.47333 9.27345 6.57258 10.5286 6.24548 11.8101C6.16321 12.0833 6.13684 12.328 6.13684 12.6012C6.13684 14.1834 7.41837 15.4375 8.97311 15.4375C10.5278 15.4375 11.8367 14.1834 11.8367 12.6012V12.4377V12.4103V12.3017V12.2742C11.7006 11.0191 10.7725 9.60049 8.9732 8.01935Z" fill="white"/>
</svg>
