<svg width="20" height="20" viewBox="0 0 20 20" fill="none" xmlns="http://www.w3.org/2000/svg">
<path d="M18 2.5999H2.00002C1.67202 2.5999 1.40002 2.3279 1.40002 1.9999C1.40002 1.6719 1.67202 1.3999 2.00002 1.3999H18C18.328 1.3999 18.6 1.6719 18.6 1.9999C18.6 2.3279 18.328 2.5999 18 2.5999Z" fill="white"/>
<path d="M13.736 18.272C13.632 18.48 13.416 18.6 13.2 18.6C13.112 18.6 13.016 18.576 12.936 18.536L10 17.072L7.06401 18.536C6.98401 18.576 6.88801 18.6 6.80001 18.6C6.58401 18.6 6.36801 18.48 6.26401 18.272C6.11201 17.968 6.23201 17.608 6.53601 17.464L9.40001 16.032V14H10.6V16.032L13.464 17.464C13.768 17.608 13.888 17.968 13.736 18.272Z" fill="white"/>
<path d="M2.80005 2V11.68C2.80005 13.2 3.60005 14 5.12005 14H14.88C16.4 14 17.2 13.2 17.2 11.68V2H2.80005ZM13.984 7.264L11.464 9.368C11.232 9.56 10.936 9.64 10.656 9.592C10.368 9.544 10.12 9.368 9.96805 9.112L9.12805 7.712L6.78405 9.664C6.67205 9.76 6.53605 9.8 6.40005 9.8C6.23205 9.8 6.05605 9.728 5.93605 9.584C5.72005 9.328 5.76005 8.952 6.01605 8.736L8.53605 6.632C8.76805 6.44 9.06405 6.36 9.34405 6.408C9.63205 6.456 9.88005 6.632 10.032 6.888L10.872 8.288L13.216 6.336C13.472 6.12 13.848 6.16 14.064 6.416C14.272 6.672 14.24 7.048 13.984 7.264Z" fill="white"/>
</svg>
