<svg width="20" height="20" viewBox="0 0 20 20" fill="none" xmlns="http://www.w3.org/2000/svg">
<path d="M13.024 2H6.97601C3.95201 2 3.20001 2.808 3.20001 6.032V15.04C3.20001 17.168 4.36801 17.672 5.78401 16.152L5.79201 16.144C6.44801 15.448 7.44801 15.504 8.01601 16.264L8.82401 17.344C9.47201 18.2 10.52 18.2 11.168 17.344L11.976 16.264C12.552 15.496 13.552 15.44 14.208 16.144C15.632 17.664 16.792 17.16 16.792 15.032V6.032C16.8 2.808 16.048 2 13.024 2ZM7.60001 6C8.04001 6 8.40001 6.36 8.40001 6.8C8.40001 7.24 8.04801 7.6 7.60001 7.6C7.15201 7.6 6.80001 7.24 6.80001 6.8C6.80001 6.36 7.15201 6 7.60001 6ZM12.4 11.6C11.952 11.6 11.6 11.24 11.6 10.8C11.6 10.36 11.96 10 12.4 10C12.84 10 13.2 10.36 13.2 10.8C13.2 11.24 12.848 11.6 12.4 11.6ZM13.12 6.472L7.73601 11.856C7.61601 11.976 7.46401 12.032 7.31201 12.032C7.16001 12.032 7.00801 11.976 6.88801 11.856C6.65601 11.624 6.65601 11.24 6.88801 11.008L12.272 5.624C12.504 5.392 12.888 5.392 13.12 5.624C13.352 5.856 13.352 6.24 13.12 6.472Z" fill="white"/>
</svg>
