<svg width="18" height="24" viewBox="0 0 18 24" fill="none" xmlns="http://www.w3.org/2000/svg">
<path d="M17.8002 23.2C17.8003 23.3051 17.7796 23.4091 17.7394 23.5062C17.6992 23.6033 17.6403 23.6915 17.566 23.7658C17.4917 23.8401 17.4035 23.899 17.3064 23.9392C17.2093 23.9794 17.1053 24.0001 17.0002 24H1.0002C0.895121 24.0001 0.791065 23.9794 0.693978 23.9392C0.59689 23.899 0.508675 23.8401 0.434376 23.7658C0.360077 23.6915 0.301152 23.6033 0.26097 23.5062C0.220787 23.4091 0.200135 23.3051 0.200195 23.2C0.200195 20.8661 1.12734 18.6278 2.77766 16.9775C4.42798 15.3271 6.66629 14.4 9.00019 14.4C11.3341 14.4 13.5724 15.3271 15.2227 16.9775C16.8731 18.6278 17.8002 20.8661 17.8002 23.2ZM9.00019 3.2C8.05084 3.2 7.12281 3.48152 6.33346 4.00895C5.5441 4.53638 4.92887 5.28603 4.56557 6.16312C4.20227 7.04021 4.10722 8.00532 4.29243 8.93643C4.47763 9.86754 4.93479 10.7228 5.60608 11.3941C6.27737 12.0654 7.13265 12.5226 8.06376 12.7078C8.99487 12.893 9.95999 12.7979 10.8371 12.4346C11.7142 12.0713 12.4638 11.4561 12.9912 10.6667C13.5187 9.87738 13.8002 8.94935 13.8002 8C13.7988 6.72739 13.2926 5.5073 12.3928 4.60742C11.4929 3.70755 10.2728 3.20139 9.00019 3.2ZM1.8002 10.4C2.22437 10.3994 2.63102 10.2307 2.93096 9.93076C3.2309 9.63082 3.39964 9.22418 3.4002 8.8V7.2C3.4002 6.77565 3.23162 6.36869 2.93157 6.06863C2.63151 5.76857 2.22454 5.6 1.8002 5.6C1.37585 5.6 0.968883 5.76857 0.668824 6.06863C0.368766 6.36869 0.200195 6.77565 0.200195 7.2V8.8C0.200746 9.22418 0.369494 9.63082 0.669433 9.93076C0.969372 10.2307 1.37602 10.3994 1.8002 10.4ZM9.00019 1.6C10.0755 1.6011 11.1332 1.87332 12.0755 2.39149C13.0177 2.90966 13.8141 3.65705 14.391 4.56455C14.8497 4.25386 15.3816 4.06851 15.934 4.0269C15.2361 2.80376 14.2271 1.78698 13.0094 1.07975C11.7916 0.372516 10.4084 0 9.00019 0C7.59196 0 6.20879 0.372516 4.99104 1.07975C3.77328 1.78698 2.76427 2.80376 2.0664 4.0269C2.61881 4.06851 3.15073 4.25386 3.60937 4.56455C4.18625 3.65705 4.98264 2.90966 5.9249 2.39149C6.86716 1.87332 7.92486 1.6011 9.00019 1.6ZM16.2002 5.6C15.776 5.60055 15.3694 5.7693 15.0694 6.06924C14.7695 6.36918 14.6007 6.77582 14.6002 7.2V8.8C14.6006 9.06698 14.668 9.32959 14.796 9.56385C14.9241 9.79811 15.1088 9.99654 15.3333 10.141C15.2112 10.6686 14.9142 11.1395 14.4906 11.477C14.067 11.8145 13.5418 11.9988 13.0002 12C12.788 12 12.5845 12.0843 12.4345 12.2343C12.2845 12.3843 12.2002 12.5878 12.2002 12.8C12.2002 13.0122 12.2845 13.2157 12.4345 13.3657C12.5845 13.5157 12.788 13.6 13.0002 13.6C13.9529 13.5974 14.8733 13.2544 15.5954 12.633C16.3175 12.0116 16.7938 11.1526 16.9384 10.2109C17.1972 10.0769 17.4144 9.87449 17.5663 9.62577C17.7182 9.37704 17.7991 9.09145 17.8002 8.8V7.2C17.7996 6.77582 17.6309 6.36918 17.331 6.06924C17.031 5.7693 16.6244 5.60055 16.2002 5.6Z" fill="white"/>
</svg>
