<svg width="153" height="46" viewBox="0 0 153 46" fill="none" xmlns="http://www.w3.org/2000/svg">
<path d="M54.83 34V13H69.65V16.93H59.24V21.55H69.44V25.36H59.24V30.07H69.65V34H54.83Z" fill="#002329"/>
<path d="M79.9064 34V19.15H84.1064V20.92C85.3064 19.56 86.8164 18.88 88.6364 18.88C90.6764 18.88 92.3164 19.74 93.5564 21.46C94.9764 19.74 96.7864 18.88 98.9864 18.88C100.946 18.88 102.496 19.53 103.636 20.83C104.796 22.13 105.376 23.95 105.376 26.29V34H101.176V26.65C101.176 25.29 100.886 24.25 100.306 23.53C99.7464 22.81 98.9864 22.45 98.0264 22.45C97.0064 22.45 96.2064 22.83 95.6264 23.59C95.0464 24.33 94.7564 25.35 94.7564 26.65V34H90.5564V26.65C90.5564 25.31 90.2664 24.28 89.6864 23.56C89.1064 22.82 88.3464 22.45 87.4064 22.45C86.4064 22.45 85.6064 22.84 85.0064 23.62C84.4064 24.38 84.1064 25.43 84.1064 26.77V34H79.9064Z" fill="#002329"/>
<path d="M115.259 34.42C113.059 34.42 111.169 33.66 109.589 32.14C108.029 30.6 107.249 28.74 107.249 26.56C107.249 24.38 108.029 22.52 109.589 20.98C111.169 19.42 113.059 18.64 115.259 18.64C116.539 18.64 117.749 18.93 118.889 19.51C120.029 20.09 120.969 20.88 121.709 21.88L118.289 24.37C117.569 23.27 116.559 22.7 115.259 22.66C114.119 22.64 113.179 23.01 112.439 23.77C111.719 24.51 111.359 25.45 111.359 26.59C111.359 27.71 111.719 28.64 112.439 29.38C113.179 30.1 114.119 30.47 115.259 30.49C115.899 30.51 116.489 30.36 117.029 30.04C117.569 29.72 117.999 29.29 118.319 28.75L121.679 31.21C120.939 32.21 120.009 33 118.889 33.58C117.769 34.14 116.559 34.42 115.259 34.42Z" fill="#002329"/>
<path d="M125.688 34V22.81H122.538V19.15H125.688V16.69C125.688 15.09 126.228 13.8 127.308 12.82C128.388 11.82 129.778 11.32 131.478 11.32C132.338 11.32 133.278 11.46 134.298 11.74L133.848 15.55C133.328 15.41 132.848 15.34 132.408 15.34C131.668 15.34 131.058 15.54 130.578 15.94C130.118 16.34 129.888 16.97 129.888 17.83V19.15H134.028V22.81H129.888V34H125.688Z" fill="#002329"/>
<path d="M135.074 34L140.564 26.44L135.074 19.15H140.084L143.174 23.68L146.234 19.15H151.244L145.784 26.44L151.244 34H146.234L143.174 29.17L140.054 34H135.074Z" fill="#002329"/>
<circle cx="74.713" cy="24.5959" r="3.04956" fill="#E35728"/>
<path d="M30.8062 41.5698C33.0624 40.3784 33.9256 37.5834 32.7342 35.3271C31.5427 33.0708 28.7477 32.2076 26.4914 33.3991L30.8062 41.5698ZM19.6018 39.3202L19.2074 43.9233L19.2074 43.9234L19.6018 39.3202ZM10.9988 35.9723L8.17797 39.6312H8.17797L10.9988 35.9723ZM5.57246 28.5041L1.2211 30.0566L1.2211 30.0566L5.57246 28.5041ZM26.4914 33.3991C24.4975 34.4521 22.2428 34.9096 19.9961 34.7171L19.2074 43.9234C23.2193 44.2671 27.2455 43.4501 30.8062 41.5698L26.4914 33.3991ZM19.9961 34.7171C17.7494 34.5246 15.6055 33.6902 13.8197 32.3135L8.17797 39.6312C11.3669 42.0897 15.1954 43.5796 19.2074 43.9233L19.9961 34.7171ZM13.8197 32.3135C12.0339 30.9367 10.6815 29.0755 9.92382 26.9517L1.2211 30.0566C2.57417 33.8491 4.98904 37.1726 8.17797 39.6312L13.8197 32.3135ZM9.92382 26.9517C9.1661 24.8279 9.03495 22.531 9.54599 20.3348L0.546417 18.2407C-0.366155 22.1625 -0.131957 26.2641 1.2211 30.0566L9.92382 26.9517Z" fill="#234146"/>
<path d="M2.52 23C1.12824 23 -0.0156293 21.8677 0.150956 20.4859C0.710754 15.8426 2.80974 11.4918 6.15076 8.15076C10.089 4.21249 15.4305 2 21 2C26.5695 2 31.911 4.21249 35.8492 8.15075C39.1903 11.4918 41.2892 15.8426 41.849 20.4859C42.0156 21.8677 40.8718 23 39.48 23L21 23L2.52 23Z" fill="#E35728"/>
</svg>
