<svg width="24" height="20" viewBox="0 0 24 20" fill="none" xmlns="http://www.w3.org/2000/svg">
<path d="M23.1429 10.857C23.6162 10.857 24 10.4736 24 9.99981C24 9.52604 23.6162 9.14266 23.1429 9.14266H21.0514C21.0086 8.73136 20.94 8.32873 20.8458 7.94317H23.1279C23.1323 7.94322 23.136 7.94568 23.1403 7.94568C23.3777 7.94568 23.5922 7.84905 23.7474 7.69325C23.9033 7.53809 24 7.32354 24 7.08602C24 7.08163 23.9975 7.07797 23.9975 7.07357V5.03106C23.9975 4.55729 23.6137 4.17392 23.1403 4.17392C22.667 4.17392 22.2832 4.55729 22.2832 5.03106V6.22888H20.2545C20.2544 6.22872 20.2546 6.22904 20.2545 6.22888C18.8231 3.10034 15.66 0.914062 12 0.914062C8.33998 0.914062 5.17712 3.09982 3.74571 6.22836C3.74561 6.22852 3.74581 6.2282 3.74571 6.22836L1.7168 6.22888V5.03106C1.7168 4.55729 1.33301 4.17392 0.859654 4.17392C0.3863 4.17392 0.00251116 4.55729 0.00251116 5.03106V7.07357C0.00245888 7.07797 0 7.08163 0 7.08602C0 7.32354 0.096732 7.53809 0.252581 7.69325C0.407802 7.84905 0.622349 7.94568 0.859654 7.94568C0.864049 7.94568 0.867711 7.94322 0.872105 7.94317H3.15417C3.05995 8.32873 2.99142 8.73136 2.94857 9.14266H0.859654C0.3863 9.14266 0.00251116 9.52604 0.00251116 9.99981C0.00251116 10.4736 0.3863 10.857 0.859654 10.857H2.94857C2.99142 11.2682 3.05995 11.6709 3.15417 12.0564H0.872105C0.867711 12.0564 0.864049 12.0539 0.859654 12.0539C0.622349 12.0539 0.407802 12.1506 0.252581 12.3064C0.096732 12.4615 0 12.6761 0 12.9136C0 12.918 0.00245888 12.9216 0.00251116 12.926V14.9686C0.00251116 15.4423 0.3863 15.8257 0.859654 15.8257C1.33301 15.8257 1.7168 15.4423 1.7168 14.9686V13.7707H3.7455C3.74545 13.7706 3.74555 13.7709 3.7455 13.7707C5.17691 16.8993 8.33998 19.0855 12 19.0855C15.66 19.0855 18.8229 16.8998 20.2543 13.7712C20.2542 13.7714 20.2543 13.771 20.2543 13.7712L22.2832 13.7707V14.9686C22.2832 15.4423 22.667 15.8257 23.1403 15.8257C23.6137 15.8257 23.9975 15.4423 23.9975 14.9686V12.926C23.9975 12.9216 24 12.918 24 12.9136C24 12.6761 23.9033 12.4615 23.7474 12.3064C23.5922 12.1506 23.3777 12.0539 23.1403 12.0539C23.136 12.0539 23.1323 12.0564 23.1279 12.0564H20.8458C20.94 11.6709 21.0086 11.2682 21.0514 10.857H23.1429ZM10.74 12.417H13.4143C13.8 12.417 14.1171 12.0998 14.1171 11.7141C14.1171 11.2427 14.5028 10.857 14.9743 10.857C15.4457 10.857 15.8314 11.2427 15.8314 11.7141C15.8314 13.0427 14.7514 14.1312 13.4143 14.1312H12.8571V15.1427C12.8571 15.6141 12.4714 15.9998 12 15.9998C11.5286 15.9998 11.1429 15.6141 11.1429 15.1427V14.1312H10.74C9.32572 14.1312 8.1686 12.9741 8.1686 11.5598V8.4398C8.1686 7.0255 9.32572 5.86837 10.74 5.86837H11.1429V4.85695C11.1429 4.38553 11.5286 3.99981 12 3.99981C12.4714 3.99981 12.8571 4.38553 12.8571 4.85695V5.86837H13.4143C14.7514 5.86837 15.8314 6.95696 15.8314 8.28552C15.8314 8.75694 15.4457 9.14266 14.9743 9.14266C14.5028 9.14266 14.1171 8.75694 14.1171 8.28552C14.1171 7.8998 13.8 7.58266 13.4143 7.58266H10.74C10.2686 7.58266 9.88288 7.96838 9.88288 8.4398V11.5598C9.88288 12.0312 10.2686 12.417 10.74 12.417Z" fill="white"/>
</svg>
