<svg width="24" height="24" viewBox="0 0 24 24" fill="none" xmlns="http://www.w3.org/2000/svg">
<path d="M12.0094 0C7.82455 0 3.94109 2.18188 1.76288 5.75624C-0.414141 9.3296 -0.572245 13.7807 1.34573 17.5001L0.670727 22.9098C0.633025 23.1858 0.718158 23.4656 0.901808 23.6747C1.08667 23.8839 1.3518 24.0019 1.63155 23.9995H1.74831L7.80624 23.2466V23.2479C11.1361 24.486 14.8434 24.1843 17.9301 22.4257C21.0169 20.6671 23.1645 17.6315 23.7972 14.1348C24.4296 10.6392 23.4798 7.04314 21.2042 4.31385C18.9299 1.58589 15.5623 0.00601126 12.0097 9.56103e-05L12.0094 0ZM11.3612 19.3037C10.9671 19.3037 10.612 19.0665 10.4624 18.7029C10.3116 18.3392 10.3943 17.9209 10.6728 17.6424C10.9513 17.3651 11.3697 17.2811 11.7333 17.432C12.097 17.5828 12.3341 17.9367 12.3341 18.3307C12.3268 18.8646 11.8951 19.2964 11.3612 19.3037ZM13.7085 12.7264C12.8863 13.0049 12.3329 13.7772 12.3341 14.6468V15.0883V15.0871C12.3341 15.6247 11.8975 16.0601 11.3612 16.0601C10.8236 16.0601 10.3882 15.6247 10.3882 15.0871V14.6456V14.6468C10.3639 12.932 11.4658 11.4044 13.0991 10.8839C13.8033 10.6504 14.2789 9.99116 14.2801 9.24928C14.2801 7.99538 13.2633 6.97981 12.0094 6.97981C10.7555 6.97981 9.73873 7.99535 9.73873 9.24928C9.73873 9.78685 9.30334 10.2222 8.76576 10.2222C8.2294 10.2222 7.79279 9.78685 7.79279 9.24928C7.79279 6.92144 9.68035 5.03391 12.0094 5.03391C14.3385 5.03391 16.226 6.92147 16.226 9.24928C16.2224 10.8291 15.2081 12.2302 13.7085 12.7264Z" fill="white"/>
</svg>
