<svg width="50" height="50" viewBox="0 0 50 50" fill="none" xmlns="http://www.w3.org/2000/svg">
<path d="M38.3973 17.1408C38.3973 24.2776 32.6492 30.0629 25.5586 30.0629C18.4679 30.0629 12.7198 24.2776 12.7198 17.1408C12.7198 10.0042 15.078 4.21869 25.5586 4.21875C36.0392 4.21881 38.3973 10.0042 38.3973 17.1408Z" fill="#00C11F" fill-opacity="0.8"/>
<path d="M25.5594 13.7133C28.8877 13.7133 31.5858 10.6434 31.5858 6.85663C31.5858 3.06982 28.8877 0 25.5594 0C22.2312 0 19.5331 3.06982 19.5331 6.85663C19.5331 10.6434 22.2312 13.7133 25.5594 13.7133Z" fill="#00C11F"/>
<path d="M25.4121 40.9706C19.2714 37.4022 17.1675 29.4992 20.7128 23.3187C24.2582 17.1381 32.1102 15.0205 38.2508 18.5889C44.3915 22.1571 48.1905 27.1054 42.9501 36.2408C37.7098 45.3761 31.5528 44.539 25.4121 40.9706Z" fill="#0056FF" fill-opacity="0.8"/>
<path d="M34.7812 31.4978C33.117 34.3989 34.4094 38.2856 37.6677 40.179C40.926 42.0724 44.9165 41.2555 46.5806 38.3544C48.2447 35.4533 46.9524 31.5667 43.694 29.6732C40.4357 27.7798 36.4453 28.5967 34.7812 31.4978Z" fill="#0056FF"/>
<path d="M11.75 18.8584C17.8906 15.29 25.7426 17.4077 29.288 23.5882C32.8332 29.7688 30.7294 37.6718 24.5887 41.2401C18.448 44.8085 12.2909 45.6458 7.05066 36.5103C1.81039 27.3749 5.60926 22.4268 11.75 18.8584Z" fill="#F4E951" fill-opacity="0.8"/>
<path d="M15.219 31.7616C13.5548 28.8605 9.56442 28.0437 6.3061 29.9371C3.04779 31.8305 1.75544 35.7172 3.41957 38.6182C5.0837 41.5193 9.07413 42.3362 12.3324 40.4428C15.5908 38.5494 16.8831 34.6627 15.219 31.7616Z" fill="#F4E951"/>
<path d="M25.429 35.3374C31.0002 35.3374 35.5166 30.7917 35.5166 25.1843C35.5166 19.5769 31.0002 15.0312 25.429 15.0312C19.8578 15.0312 15.3414 19.5769 15.3414 25.1843C15.3414 30.7917 19.8578 35.3374 25.429 35.3374Z" fill="white"/>
<path d="M24.1981 20.8359L22.1527 26.1103H27.917" stroke="#FF7F24" stroke-width="2" stroke-miterlimit="10" stroke-linecap="round" stroke-linejoin="round"/>
<path d="M26.3461 23.207V29.2725" stroke="#FF7F24" stroke-width="2" stroke-miterlimit="10" stroke-linecap="round" stroke-linejoin="round"/>
</svg>
