<svg width="50" height="50" viewBox="0 0 50 50" fill="none" xmlns="http://www.w3.org/2000/svg">
<g clip-path="url(#clip0_2227_4526)">
<path d="M25 50C38.8071 50 50 38.8071 50 25C50 11.1929 38.8071 0 25 0C11.1929 0 0 11.1929 0 25C0 38.8071 11.1929 50 25 50Z" fill="#F4F7FA"/>
<mask id="mask0_2227_4526" style="mask-type:alpha" maskUnits="userSpaceOnUse" x="5" y="5" width="40" height="40">
<path d="M25 45C36.0457 45 45 36.0457 45 25C45 13.9543 36.0457 5 25 5C13.9543 5 5 13.9543 5 25C5 36.0457 13.9543 45 25 45Z" fill="#D9D9D9"/>
</mask>
<g mask="url(#mask0_2227_4526)">
<path d="M15.148 15.7907C7.80787 20.4093 5.90409 28.7804 5.86972 32.3887C4.7356 29.7083 2.18102 26.5962 5.14807 16.6155C6.28203 12.8011 10.7151 4.24436 21.6429 3.41962C32.5707 2.59488 40.612 9.399 43.2924 16.6155C45.9728 23.832 42.88 30.0176 38.1377 34.1413C33.3955 38.265 24.8388 39.0897 20.612 35.2753C16.3852 31.4609 18.3439 24.0382 24.3233 20.533C28.0727 18.3351 33.258 18.5055 35.4573 18.9866L36.5913 13.5227C32.502 12.3543 22.4883 11.1722 15.148 15.7907Z" fill="#F41112"/>
</g>
</g>
<defs>
<clipPath id="clip0_2227_4526">
<rect width="50" height="50" fill="white"/>
</clipPath>
</defs>
</svg>
