<svg width="50" height="50" viewBox="0 0 50 50" fill="none" xmlns="http://www.w3.org/2000/svg">
<g clip-path="url(#clip0_2227_4337)">
<path d="M39.4695 17.1409C39.4695 24.2776 33.7117 30.0631 26.6089 30.0631C19.5062 30.0631 13.7483 24.2776 13.7483 17.1409C13.7483 10.0042 16.1104 4.21869 26.6089 4.21875C37.1073 4.21881 39.4695 10.0042 39.4695 17.1409Z" fill="#00C11F" fill-opacity="0.8"/>
<path d="M26.6097 13.7133C29.9437 13.7133 32.6464 10.6435 32.6464 6.85665C32.6464 3.06983 29.9437 0 26.6097 0C23.2758 0 20.5731 3.06983 20.5731 6.85665C20.5731 10.6435 23.2758 13.7133 26.6097 13.7133Z" fill="#00C11F"/>
<path d="M26.4616 40.9707C20.3104 37.4023 18.2028 29.4992 21.7542 23.3187C25.3056 17.1381 33.171 15.0205 39.3221 18.5889C45.4733 22.1572 49.2788 27.1054 44.0294 36.2409C38.7802 45.3762 32.6127 44.5391 26.4616 40.9707Z" fill="#0056FF" fill-opacity="0.8"/>
<path d="M35.8465 31.4978C34.1795 34.3989 35.4741 38.2856 38.7379 40.179C42.0018 42.0724 45.9991 41.2555 47.666 38.3544C49.333 35.4534 48.0384 31.5666 44.7746 29.6732C41.5107 27.7798 37.5135 28.5967 35.8465 31.4978Z" fill="#0056FF"/>
<path d="M12.7747 18.8584C18.9258 15.29 26.7913 17.4077 30.3427 23.5882C33.894 29.7688 31.7865 37.6719 25.6354 41.2402C19.4843 44.8086 13.3166 45.6459 8.06744 36.5104C2.81826 27.3749 6.6236 22.4268 12.7747 18.8584Z" fill="#F4E951" fill-opacity="0.8"/>
<path d="M16.2499 31.7616C14.583 28.8605 10.5857 28.0436 7.32187 29.937C4.058 31.8304 2.76346 35.7171 4.43042 38.6182C6.09739 41.5193 10.0946 42.3362 13.3585 40.4428C16.6224 38.5494 17.9169 34.6626 16.2499 31.7616Z" fill="#F4E951"/>
<path d="M26.4774 35.3374C32.0581 35.3374 36.5822 30.7917 36.5822 25.1843C36.5822 19.5769 32.0581 15.0312 26.4774 15.0312C20.8967 15.0312 16.3727 19.5769 16.3727 25.1843C16.3727 30.7917 20.8967 35.3374 26.4774 35.3374Z" fill="white"/>
<path d="M23.4058 27.3955C23.7674 27.7674 24.645 28.6408 26.0124 28.6408C27.3797 28.6408 28.3629 27.5251 28.3629 26.2234C28.3629 24.9217 27.2781 23.8061 26.0124 23.8061C24.7467 23.8061 24.0253 24.3741 24.0253 24.3741L25.4209 20.5469H28.3629" stroke="#FF7F24" stroke-width="2" stroke-miterlimit="10" stroke-linecap="round" stroke-linejoin="round"/>
</g>
<defs>
<clipPath id="clip0_2227_4337">
<rect width="50" height="50" fill="white"/>
</clipPath>
</defs>
</svg>
