<svg width="16" height="20" viewBox="0 0 16 20" fill="none" xmlns="http://www.w3.org/2000/svg">
<path fill-rule="evenodd" clip-rule="evenodd" d="M11.598 8.28007L7.82862 12.0505C7.69227 12.1868 7.50854 12.2632 7.3161 12.2632C7.12367 12.2632 6.93897 12.1868 6.80262 12.0505L4.97304 10.2189C4.6897 9.9356 4.6897 9.4753 4.974 9.19293C5.25637 8.9096 5.7157 8.9096 5.99904 9.19293L7.3161 10.5119L10.572 7.25408C10.8554 6.97074 11.3147 6.97074 11.598 7.25408C11.8814 7.53741 11.8814 7.99674 11.598 8.28007ZM15.4342 3.06208C14.8482 2.47511 11.6299 0.399902 7.99978 0.399902C4.36769 0.399902 1.15141 2.47511 0.565402 3.06208C0.00356881 3.62488 0.0122718 4.06294 0.0548203 6.49401C0.0731935 7.48036 0.0973688 8.82257 0.0973688 10.6773C0.0973688 16.9822 5.2438 19.5999 7.99978 19.5999C10.7548 19.5999 15.9022 16.9822 15.9022 10.6773C15.9022 8.8216 15.9264 7.47842 15.9447 6.49304C15.9883 4.06197 15.996 3.62488 15.4342 3.06208Z" fill="white"/>
</svg>
