<svg width="20" height="20" viewBox="0 0 20 20" fill="none" xmlns="http://www.w3.org/2000/svg">
<path d="M13.864 12.912C14.4 12.56 15.104 12.944 15.104 13.584V14.616C15.104 15.632 14.312 16.72 13.36 17.04L10.808 17.888C10.36 18.04 9.632 18.04 9.192 17.888L6.64 17.04C5.68 16.72 4.896 15.632 4.896 14.616V13.576C4.896 12.944 5.6 12.56 6.128 12.904L7.776 13.976C8.408 14.4 9.208 14.608 10.008 14.608C10.808 14.608 11.608 14.4 12.24 13.976L13.864 12.912Z" fill="white"/>
<path d="M16.3841 5.56805L11.5921 2.42405C10.7281 1.85605 9.30406 1.85605 8.44006 2.42405L3.62406 5.56805C2.08006 6.56805 2.08006 8.83205 3.62406 9.84005L4.90406 10.672L8.44006 12.976C9.30406 13.544 10.7281 13.544 11.5921 12.976L15.1041 10.672L16.2001 9.95205V12.4C16.2001 12.728 16.4721 13 16.8001 13C17.1281 13 17.4001 12.728 17.4001 12.4V8.46405C17.7201 7.43205 17.3921 6.23205 16.3841 5.56805Z" fill="white"/>
</svg>
