<svg width="22" height="22" viewBox="0 0 22 22" fill="none" xmlns="http://www.w3.org/2000/svg">
<path d="M10.9997 1.83203C5.94884 1.83203 1.83301 5.94786 1.83301 10.9987C1.83301 16.0495 5.94884 20.1654 10.9997 20.1654C16.0505 20.1654 20.1663 16.0495 20.1663 10.9987C20.1663 5.94786 16.0505 1.83203 10.9997 1.83203ZM15.3813 8.89036L10.1838 14.0879C10.0555 14.2162 9.88134 14.2895 9.69801 14.2895C9.51467 14.2895 9.34051 14.2162 9.21217 14.0879L6.61801 11.4937C6.35217 11.2279 6.35217 10.7879 6.61801 10.522C6.88384 10.2562 7.32384 10.2562 7.58967 10.522L9.69801 12.6304L14.4097 7.9187C14.6755 7.65286 15.1155 7.65286 15.3813 7.9187C15.6472 8.18453 15.6472 8.61536 15.3813 8.89036Z" fill="#E35728"/>
</svg>
